<svg id="Layer_1" enable-background="new 0 0 100 100" viewBox="0 0 100 100" xmlns="http://www.w3.org/2000/svg" width="300" height="300" version="1.1" xmlns:xlink="http://www.w3.org/1999/xlink" xmlns:svgjs="http://svgjs.dev/svgjs"><g width="100%" height="100%" transform="matrix(1,0,0,1,0,0)"><g fill="#1e40af"><path d="m84 45.2-46.5 22.9.1.1v26.8l46.4-24zm-38.7 39.8-1.9 1v-8l1.9-1zm0-9.5-1.9 1v-2.3s0-3.1 1.9-4.2zm3.1 7.9-1.9 1v-8.1l1.9-1zm0-9.6-1.9 1v-5.2c.5 0 .9.3 1.2.7.5.6.7 1.3.7 2zm7.7 5.7-1.9 1v-8l1.9-1zm0-9.5-1.9 1v-2.3s0-3.1 1.9-4.2zm3.2 7.9-1.9 1v-8.1l1.9-1zm0-9.6-1.9 1v-5.2c.5 0 .9.3 1.2.7.5.6.7 1.3.7 2zm7.2 6.3-1.9 1v-8l1.9-1zm0-9.5-1.9 1v-2.3s0-3.1 1.9-4.2zm3.1 7.9-1.9 1v-8.1l1.9-1zm0-9.6-1.9 1v-5.2c.5 0 .9.3 1.2.7.5.6.7 1.3.7 2zm6.5 5.6-1.9 1v-8l1.9-1zm0-9.5-1.9 1v-2.3s0-3.1 1.9-4.2zm3.2 7.9-1.9 1v-8.1l1.9-1zm0-9.6-1.9 1v-5.2c.5 0 .9.3 1.2.7.5.6.7 1.3.7 2z" fill="#1e40af" fill-opacity="1" data-original-color="#1e40afff" stroke="none" stroke-opacity="1"/><path d="m16 49.3v27.8l5.6 4.6v-8.4s0-5.3 3.4-3.8c3.5 1.6 2.7 8.6 2.7 8.6v8.7l8.4 6.9v-25l-10.5-17.8zm11.1 12.7c-.8.9-2.8.4-3.8-.6-1-.9-1.7-2.9-.8-3.8.8-.9 2.8-.4 3.8.6s1.6 2.9.8 3.8z" fill="#1e40af" fill-opacity="1" data-original-color="#1e40afff" stroke="none" stroke-opacity="1"/><path d="m38.9 34.3 12.2-5.6-2.2-2.5-9.9 4.5z" fill="#1e40af" fill-opacity="1" data-original-color="#1e40afff" stroke="none" stroke-opacity="1"/><path d="m39.1 29 8.8-4-2.5-2.7-6.1 2.8z" fill="#1e40af" fill-opacity="1" data-original-color="#1e40afff" stroke="none" stroke-opacity="1"/><path d="m37.8 25-4.1-2.7-2 2.6 5.9 4z" fill="#1e40af" fill-opacity="1" data-original-color="#1e40afff" stroke="none" stroke-opacity="1"/><path d="m37.6 30.6-6.8-4.5-2.2 2.8 8.8 5.3z" fill="#1e40af" fill-opacity="1" data-original-color="#1e40afff" stroke="none" stroke-opacity="1"/><path d="m30.4 47.6-1.8-.2c-.7-.1-1.3-.7-1.3-1.5v-2.8l-10.6 4.8 9.6 1.6z" fill="#1e40af" fill-opacity="1" data-original-color="#1e40afff" stroke="none" stroke-opacity="1"/><path d="m84 43.6-11.1-14.6s-.1.1-.1.1l-21 10v8.5c0 .5-.3 1-.8 1.3l-11.1 6.1c-.1 0-.1.1-.2.1h-.1-.1c-.1 0-.2 0-.3 0s-.2 0-.4 0h-.1c-.1 0-.2-.1-.2-.1s0 0-.1 0c0 0 0 0-.1 0s-.1-.1-.2-.1c0 0-.1-.1-.1-.1l-5.5-6.5-5.4 2.5 9.5 16.1 46.6-22.9z" fill="#1e40af" fill-opacity="1" data-original-color="#1e40afff" stroke="none" stroke-opacity="1"/><path d="m58.6 28.9-6.9 3.1v5.5l17.6-8.4z" fill="#1e40af" fill-opacity="1" data-original-color="#1e40afff" stroke="none" stroke-opacity="1"/><path d="m50.3 47.6v-16.9l-11.1 5.1v17.9zm-6.9-6s0-2.1 1.3-2.8c.7-.3 1.2-.1 1.5.3s.4.8.4 1.3v4.3l-3.2 1.6z" fill="#1e40af" fill-opacity="1" data-original-color="#1e40afff" stroke="none" stroke-opacity="1"/><path d="m28.8 45.9 4.2.5 4.7 5.6v-15.9l-8.9-5.4z" fill="#1e40af" fill-opacity="1" data-original-color="#1e40afff" stroke="none" stroke-opacity="1"/><path d="m38.3 13.2c-.9.3-1.6 1.2-1.6 2.2 0 1.3 1.1 2.3 2.3 2.3 1.3 0 2.3-1.1 2.3-2.3 0-1-.7-1.9-1.6-2.2v-3.7l2.7 1v-1.5l-2.7-1v-2.5l-1.4-.5v2.5l-2.7-.9v1.4l2.7 1z" fill="#1e40af" fill-opacity="1" data-original-color="#1e40afff" stroke="none" stroke-opacity="1"/><path d="m39.6 19.2-.2 4.3 5.1-2.3-2.7-3c-.6.5-1.4.9-2.2 1z" fill="#1e40af" fill-opacity="1" data-original-color="#1e40afff" stroke="none" stroke-opacity="1"/><path d="m38.1 19.1c-.5-.1-1-.4-1.4-.7l-2.1 2.6 3.3 2.2z" fill="#1e40af" fill-opacity="1" data-original-color="#1e40afff" stroke="none" stroke-opacity="1"/></g></g></svg>